<svg width="14" height="14" viewBox="0 0 14 14" fill="none" xmlns="http://www.w3.org/2000/svg">
<path d="M13.0117 9.53125C13.2227 9.53125 13.3984 9.60156 13.5391 9.74219C13.6797 9.88281 13.75 10.0586 13.75 10.2695V12.8711C13.75 13.457 13.5039 13.75 13.0117 13.75C9.51953 13.75 6.51953 12.4961 4.01172 9.98828C1.50391 7.48047 0.25 4.48047 0.25 0.988281C0.25 0.496094 0.542969 0.25 1.12891 0.25H3.73047C3.94141 0.25 4.11719 0.320312 4.25781 0.460938C4.39844 0.601562 4.46875 0.777344 4.46875 0.988281C4.46875 1.90234 4.60938 2.78125 4.89062 3.625C4.98438 3.92969 4.92578 4.1875 4.71484 4.39844L3.27344 5.66406C4.35156 7.91406 6.07422 9.61328 8.44141 10.7617L9.60156 9.28516C9.74219 9.14453 9.91797 9.07422 10.1289 9.07422C10.2461 9.07422 10.3281 9.08594 10.375 9.10938C11.2188 9.39062 12.0977 9.53125 13.0117 9.53125Z" fill="#8083A3"/>
</svg>
