<svg width="16" height="16" viewBox="0 0 16 16" fill="none" xmlns="http://www.w3.org/2000/svg">
<path d="M11.7617 8C11.7617 8.21094 11.6797 8.38672 11.5156 8.52734C11.375 8.66797 11.1992 8.73828 10.9883 8.73828H3.5L0.511719 11.7617V1.25C0.511719 1.03906 0.582031 0.863281 0.722656 0.722656C0.863281 0.582031 1.03906 0.511719 1.25 0.511719H10.9883C11.1992 0.511719 11.375 0.582031 11.5156 0.722656C11.6797 0.863281 11.7617 1.03906 11.7617 1.25V8ZM14.75 3.5C14.9609 3.5 15.1367 3.57031 15.2773 3.71094C15.418 3.85156 15.4883 4.02734 15.4883 4.23828V15.4883L12.5 12.5H4.23828C4.02734 12.5 3.85156 12.4297 3.71094 12.2891C3.57031 12.1484 3.5 11.9727 3.5 11.7617V10.25H13.2383V3.5H14.75Z" fill="#8083A3"/>
</svg>
